<?xml version="1.0" encoding="UTF-8" standalone="no"?>
<svg width="48px" height="48px" viewBox="0 0 48 48" version="1.1" xmlns="http://www.w3.org/2000/svg" xmlns:xlink="http://www.w3.org/1999/xlink" xmlns:sketch="http://www.bohemiancoding.com/sketch/ns">
    <!-- Generator: Sketch 3.3.3 (12081) - http://www.bohemiancoding.com/sketch -->
    <title>brand-sign</title>
    <desc>Created with Sketch.</desc>
    <defs>
        <circle id="path-1" cx="24" cy="24" r="24"></circle>
    </defs>
    <g id="file" stroke="none" stroke-width="1" fill="none" fill-rule="evenodd" sketch:type="MSPage">
        <g id="brand-sign" sketch:type="MSLayerGroup">
            <mask id="mask-2" sketch:name="Oval 6" fill="white">
                <use xlink:href="#path-1"></use>
            </mask>
            <use id="Oval-6" fill-opacity="0" fill="#000000" sketch:type="MSShapeGroup" xlink:href="#path-1"></use>
            <path d="M24,48 C37.254834,48 48,37.254834 48,24 C48,10.745166 37.254834,0 24,0 C10.745166,0 0,10.745166 0,24 C0,37.254834 10.745166,48 24,48 Z M24,48 C34.4934102,48 43,39.4934102 43,29 C43,18.5065898 34.4934102,10 24,10 C13.5065898,10 5,18.5065898 5,29 C5,39.4934102 13.5065898,48 24,48 Z" id="Oval-11" fill="#000000" sketch:type="MSShapeGroup" mask="url(#mask-2)"></path>
            <path d="M24,48 C32.836556,48 40,40.836556 40,32 C40,23.163444 32.836556,16 24,16 C15.163444,16 8,23.163444 8,32 C8,40.836556 15.163444,48 24,48 Z M24,48 C30.627417,48 36,42.627417 36,36 C36,29.372583 30.627417,24 24,24 C17.372583,24 12,29.372583 12,36 C12,42.627417 17.372583,48 24,48 Z" id="Oval-8" fill="#000000" sketch:type="MSShapeGroup" mask="url(#mask-2)"></path>
            <path d="M24,48 C29.5228475,48 34,43.5228475 34,38 C34,32.4771525 29.5228475,28 24,28 C18.4771525,28 14,32.4771525 14,38 C14,43.5228475 18.4771525,48 24,48 Z" id="Oval-10" fill="#000000" sketch:type="MSShapeGroup" mask="url(#mask-2)"></path>
            <polygon id="Triangle-13" fill="#0089CF" sketch:type="MSShapeGroup" mask="url(#mask-2)" points="24 32 36 48 12 48 "></polygon>
        </g>
    </g>
</svg>